<svg width="50" height="35" viewBox="0 0 50 35" fill="none" xmlns="http://www.w3.org/2000/svg">
<path d="M6.786 34.654C5.246 34.654 4.182 34.346 3.594 33.73C3.006 33.142 2.698 32.372 2.67 31.42C2.67 30.608 2.824 29.642 3.132 28.522C3.468 27.374 3.804 26.282 4.14 25.246C4.812 23.258 5.512 21.298 6.24 19.366C6.968 17.434 7.696 15.572 8.424 13.78C9.18 11.988 9.894 10.28 10.566 8.656C11.266 7.032 11.91 5.534 12.498 4.162C10.594 4.19 8.942 4.246 7.542 4.33C6.17 4.414 4.91 4.526 3.762 4.666C2.614 4.778 1.424 4.946 0.192 5.17C0.332 3.994 0.878 3.098 1.83 2.482C2.81 1.838 4.112 1.39 5.736 1.138C7.36 0.885999 9.222 0.759999 11.322 0.759999C12.414 0.759999 13.436 0.787998 14.388 0.843998C15.368 0.871999 16.292 0.927999 17.16 1.012C18.056 1.096 18.924 1.18 19.764 1.264C21.528 1.432 22.928 1.544 23.964 1.6C25.028 1.656 25.784 1.684 26.232 1.684C25.392 2.468 24.328 3.042 23.04 3.406C21.78 3.742 20.45 3.952 19.05 4.036C17.65 4.12 16.32 4.162 15.06 4.162C13.716 7.466 12.484 10.896 11.364 14.452C10.244 18.008 9.208 21.522 8.256 24.994C7.892 26.338 7.584 27.486 7.332 28.438C7.108 29.362 6.94 30.216 6.828 31C6.716 31.756 6.66 32.568 6.66 33.436C6.66 33.576 6.66 33.73 6.66 33.898C6.688 34.094 6.73 34.346 6.786 34.654ZM18.2389 32.26C17.2869 32.26 16.5029 31.826 15.8869 30.958C15.2989 30.062 15.0049 29.04 15.0049 27.892C15.0049 27.108 15.1309 26.184 15.3829 25.12C15.6349 24.056 15.9569 23.02 16.3489 22.012C16.7689 21.004 17.1889 20.164 17.6089 19.492C18.0569 18.82 18.4629 18.484 18.8269 18.484C19.0229 18.484 19.3169 18.596 19.7089 18.82C20.1289 19.016 20.4929 19.268 20.8009 19.576C20.4929 20.024 20.1149 20.71 19.6669 21.634C19.2469 22.558 18.8689 23.552 18.5329 24.616C18.1969 25.68 18.0289 26.646 18.0289 27.514C18.0289 27.626 18.0429 27.892 18.0709 28.312C18.1269 28.732 18.2389 29.124 18.4069 29.488C18.5749 29.852 18.8689 30.034 19.2889 30.034C19.7649 30.034 20.2689 29.782 20.8009 29.278C21.3609 28.746 21.9209 28.074 22.4809 27.262C23.0689 26.422 23.6289 25.526 24.1609 24.574C24.7209 23.622 25.2109 22.698 25.6309 21.802C26.0789 20.906 26.4429 20.15 26.7229 19.534C26.9749 19.562 27.2969 19.632 27.6889 19.744C28.1089 19.856 28.4729 20.01 28.7809 20.206C29.0889 20.374 29.2429 20.626 29.2429 20.962C29.2429 21.046 29.1029 21.396 28.8229 22.012C28.5709 22.6 28.2629 23.314 27.8989 24.154C27.5629 24.994 27.2549 25.862 26.9749 26.758C26.7229 27.626 26.5969 28.396 26.5969 29.068C26.5969 29.46 26.6669 29.81 26.8069 30.118C26.9749 30.398 27.2829 30.538 27.7309 30.538C28.3189 30.538 29.0189 30.272 29.8309 29.74C30.6429 29.208 31.4829 28.438 32.3509 27.43C33.2189 26.422 33.9889 25.218 34.6609 23.818L35.2909 24.322C34.6749 25.834 33.8769 27.192 32.8969 28.396C31.9169 29.6 30.8669 30.538 29.7469 31.21C28.6269 31.91 27.5349 32.26 26.4709 32.26C25.6589 32.26 25.0429 32.064 24.6229 31.672C24.2309 31.308 23.9649 30.832 23.8249 30.244C23.6849 29.628 23.6009 29.012 23.5729 28.396C23.5729 28.256 23.5729 28.116 23.5729 27.976C23.5729 27.808 23.5729 27.668 23.5729 27.556C23.0969 28.312 22.5789 29.054 22.0189 29.782C21.4589 30.482 20.8569 31.07 20.2129 31.546C19.5969 32.022 18.9389 32.26 18.2389 32.26ZM38.4579 32.848C36.6659 32.848 35.2799 32.358 34.2999 31.378C33.3479 30.426 32.8719 29.222 32.8719 27.766C32.8719 26.534 33.1799 25.232 33.7959 23.86C34.4399 22.46 35.2939 21.158 36.3579 19.954C37.4219 18.722 38.5979 17.728 39.8859 16.972C41.1739 16.216 42.4619 15.838 43.7499 15.838C44.4779 15.838 45.1639 16.034 45.8079 16.426C46.4799 16.79 46.8159 17.532 46.8159 18.652C46.8159 19.716 46.5079 20.71 45.8919 21.634C45.2759 22.558 44.4499 23.384 43.4139 24.112C42.3779 24.84 41.2299 25.442 39.9699 25.918C38.7379 26.366 37.4919 26.66 36.2319 26.8C36.2039 26.912 36.1759 27.038 36.1479 27.178C36.1479 27.29 36.1479 27.486 36.1479 27.766C36.1479 27.906 36.1619 28.158 36.1899 28.522C36.2459 28.858 36.3719 29.222 36.5679 29.614C36.7639 30.006 37.0859 30.342 37.5339 30.622C37.9819 30.902 38.5979 31.042 39.3819 31.042C40.5579 31.042 41.7339 30.72 42.9099 30.076C44.1139 29.404 45.2339 28.522 46.2699 27.43C47.3339 26.338 48.2159 25.12 48.9159 23.776L49.7559 24.448C48.9999 26.128 48.0199 27.598 46.8159 28.858C45.6399 30.118 44.3239 31.098 42.8679 31.798C41.4399 32.498 39.9699 32.848 38.4579 32.848ZM36.6939 25.246C37.4219 25.162 38.2339 24.91 39.1299 24.49C40.0259 24.07 40.8799 23.538 41.6919 22.894C42.5319 22.25 43.2179 21.55 43.7499 20.794C44.2819 20.01 44.5479 19.226 44.5479 18.442C44.5479 18.134 44.4919 17.924 44.3799 17.812C44.2679 17.7 44.0859 17.644 43.8339 17.644C43.1899 17.644 42.5179 17.882 41.8179 18.358C41.1179 18.806 40.4319 19.408 39.7599 20.164C39.0879 20.892 38.4859 21.704 37.9539 22.6C37.4219 23.496 37.0019 24.378 36.6939 25.246Z" fill="url(#paint0_linear_173_64)"/>
<defs>
<linearGradient id="paint0_linear_173_64" x1="25" y1="-7" x2="25" y2="30.0588" gradientUnits="userSpaceOnUse">
<stop stop-color="#09C7E1"/>
<stop offset="1" stop-color="#07616D"/>
</linearGradient>
</defs>
</svg>
