<svg width="113" height="41" viewBox="0 0 113 41" fill="none" xmlns="http://www.w3.org/2000/svg">
<path d="M5.48 32.48C4.28 32.48 3.45333 32.2133 3 31.68C2.54667 31.1467 2.32 30.4667 2.32 29.64C2.32 28.8667 2.48 27.9467 2.8 26.88C3.12 25.8133 3.45333 24.7867 3.8 23.8C4.25333 22.4933 4.8 20.96 5.44 19.2C6.08 17.44 6.76 15.6 7.48 13.68C8.22667 11.76 8.97333 9.86667 9.72 8C10.4933 6.13333 11.24 4.44 11.96 2.92C10.12 2.94667 8.57333 2.98667 7.32 3.04C6.09333 3.09333 4.98667 3.17333 4 3.28C3.01333 3.36 1.93333 3.50667 0.76 3.72C0.84 2.81333 1.30667 2.10667 2.16 1.6C3.01333 1.09333 4.16 0.733332 5.6 0.52C7.04 0.306666 8.68 0.199999 10.52 0.199999C12.36 0.199999 14 0.279999 15.44 0.439998C16.9067 0.573331 18.28 0.706665 19.56 0.839998C20.84 0.973331 22.12 1.05333 23.4 1.08C22.4933 1.90667 21.4533 2.42666 20.28 2.64C19.1067 2.85333 17.8667 2.96 16.56 2.96C16.2667 2.96 15.96 2.96 15.64 2.96C15.32 2.93333 15 2.92 14.68 2.92C14.36 2.92 14.04 2.92 13.72 2.92C12.8667 5.05333 11.88 7.74667 10.76 11C9.66667 14.2533 8.56 17.92 7.44 22C7.06667 23.4133 6.72 24.68 6.4 25.8C6.10667 26.92 5.86667 27.9467 5.68 28.88C5.52 29.8133 5.44 30.72 5.44 31.6C5.44 31.7333 5.44 31.88 5.44 32.04C5.44 32.2 5.45333 32.3467 5.48 32.48ZM17.4844 30.2C16.5777 30.2 15.8444 29.8 15.2844 29C14.751 28.1733 14.4844 27.2267 14.4844 26.16C14.4844 25.3867 14.6044 24.4933 14.8444 23.48C15.111 22.4667 15.431 21.4667 15.8044 20.48C16.1777 19.4933 16.5644 18.68 16.9644 18.04C17.3644 17.4 17.711 17.08 18.0044 17.08C18.1377 17.08 18.3644 17.16 18.6844 17.32C19.0044 17.4533 19.271 17.64 19.4844 17.88C19.191 18.3333 18.831 19.0267 18.4044 19.96C17.9777 20.8933 17.6044 21.8933 17.2844 22.96C16.9644 24.0267 16.8044 25.0133 16.8044 25.92C16.8044 26.1333 16.831 26.4667 16.8844 26.92C16.9377 27.3467 17.071 27.7333 17.2844 28.08C17.4977 28.4267 17.8177 28.6 18.2444 28.6C18.751 28.6 19.271 28.3467 19.8044 27.84C20.3377 27.3067 20.871 26.6267 21.4044 25.8C21.9644 24.9733 22.4977 24.08 23.0044 23.12C23.511 22.16 23.9777 21.24 24.4044 20.36C24.8577 19.48 25.231 18.7467 25.5244 18.16C25.6844 18.1867 25.911 18.24 26.2044 18.32C26.5244 18.4 26.8044 18.5067 27.0444 18.64C27.311 18.7733 27.4444 18.96 27.4444 19.2C27.4444 19.3067 27.311 19.6667 27.0444 20.28C26.7777 20.8667 26.4577 21.6 26.0844 22.48C25.7377 23.3333 25.431 24.2 25.1644 25.08C24.8977 25.96 24.7644 26.7333 24.7644 27.4C24.7644 27.88 24.8577 28.2667 25.0444 28.56C25.2577 28.8533 25.6044 29 26.0844 29C26.6444 29 27.3244 28.7467 28.1244 28.24C28.9244 27.7333 29.7377 27 30.5644 26.04C31.391 25.0533 32.1244 23.88 32.7644 22.52L33.2844 22.88C32.7244 24.32 31.991 25.6 31.0844 26.72C30.1777 27.8133 29.2177 28.6667 28.2044 29.28C27.191 29.8933 26.2044 30.2 25.2444 30.2C24.551 30.2 23.991 30.0667 23.5644 29.8C23.1644 29.5333 22.871 29.1733 22.6844 28.72C22.5244 28.2667 22.4444 27.7733 22.4444 27.24C22.4444 26.92 22.471 26.6 22.5244 26.28C22.5777 25.9333 22.6444 25.5867 22.7244 25.24C22.2444 26.12 21.7244 26.9467 21.1644 27.72C20.6044 28.4667 20.0177 29.0667 19.4044 29.52C18.791 29.9733 18.151 30.2 17.4844 30.2ZM36.3434 30.76C34.7168 30.76 33.4901 30.3067 32.6634 29.4C31.8634 28.52 31.4634 27.4267 31.4634 26.12C31.4634 24.92 31.7568 23.6533 32.3434 22.32C32.9568 20.9867 33.7568 19.7333 34.7434 18.56C35.7568 17.3867 36.8634 16.44 38.0634 15.72C39.2634 14.9733 40.4501 14.6 41.6234 14.6C42.2368 14.6 42.7968 14.76 43.3034 15.08C43.8368 15.4 44.1034 16.0533 44.1034 17.04C44.1034 18.0533 43.7968 19.0133 43.1834 19.92C42.5968 20.8 41.8101 21.5867 40.8234 22.28C39.8634 22.9733 38.7968 23.5467 37.6234 24C36.4768 24.4267 35.3301 24.6933 34.1834 24.8C34.1301 25.0667 34.0901 25.32 34.0634 25.56C34.0368 25.8 34.0234 26.0267 34.0234 26.24C34.0234 26.64 34.0634 27.04 34.1434 27.44C34.2501 27.84 34.4234 28.2133 34.6634 28.56C34.9034 28.88 35.2234 29.1333 35.6234 29.32C36.0501 29.5067 36.5701 29.6 37.1834 29.6C38.3301 29.6 39.4634 29.28 40.5834 28.64C41.7034 27.9733 42.7434 27.1067 43.7034 26.04C44.6634 24.9733 45.4768 23.8 46.1434 22.52L46.6234 22.88C45.9034 24.48 44.9834 25.8667 43.8634 27.04C42.7701 28.2133 41.5701 29.12 40.2634 29.76C38.9834 30.4267 37.6768 30.76 36.3434 30.76ZM34.3834 24.04C35.1034 23.8 35.9168 23.4533 36.8234 23C37.7301 22.52 38.5968 21.96 39.4234 21.32C40.2768 20.68 40.9701 19.9733 41.5034 19.2C42.0634 18.4267 42.3434 17.6133 42.3434 16.76C42.3434 16.4667 42.2901 16.24 42.1834 16.08C42.0768 15.92 41.8501 15.84 41.5034 15.84C40.8634 15.84 40.1834 16.0933 39.4634 16.6C38.7434 17.08 38.0501 17.72 37.3834 18.52C36.7168 19.32 36.1168 20.2 35.5834 21.16C35.0501 22.12 34.6501 23.08 34.3834 24.04ZM49.5438 31.04C48.2904 31.04 47.2904 30.76 46.5438 30.2C45.8238 29.6667 45.3171 29 45.0237 28.2C44.7037 27.4 44.5437 26.6 44.5437 25.8C44.5437 25 44.6504 24.3867 44.8637 23.96C45.0771 23.5333 45.3304 23.2133 45.6238 23C45.9438 22.7867 46.2371 22.6267 46.5038 22.52C46.7971 22.4133 46.9971 22.3067 47.1038 22.2C47.9038 21.32 48.6371 20.4 49.3038 19.44C49.9704 18.48 50.5571 17.4667 51.0638 16.4V15.92C51.0638 14.9333 51.2238 14.24 51.5438 13.84C51.8904 13.4133 52.2504 13.2 52.6238 13.2C52.8371 13.2 52.9971 13.2533 53.1038 13.36C53.2104 13.4667 53.2638 13.5867 53.2638 13.72C53.2638 13.8533 53.2238 14.0667 53.1438 14.36C53.0638 14.6533 53.0238 15.0267 53.0238 15.48C53.0238 16.36 53.1971 17.32 53.5438 18.36C53.8904 19.3733 54.2371 20.4533 54.5838 21.6C54.9304 22.72 55.1038 23.8933 55.1038 25.12C55.1038 25.4667 55.0771 25.8133 55.0238 26.16C54.9971 26.48 54.9438 26.7867 54.8638 27.08C55.7971 26.92 56.6771 26.5067 57.5038 25.84C58.3304 25.1467 59.1304 24.0533 59.9038 22.56L60.2638 22.96C59.7571 24.4267 58.9971 25.5467 57.9838 26.32C56.9704 27.0667 55.8638 27.5333 54.6638 27.72C54.2371 28.8667 53.5571 29.7067 52.6238 30.24C51.7171 30.7733 50.6904 31.04 49.5438 31.04ZM49.6238 29.64C49.9438 29.64 50.3704 29.5333 50.9038 29.32C51.4371 29.1067 51.8504 28.56 52.1438 27.68C51.0238 27.4667 50.0238 27.0267 49.1438 26.36C48.2904 25.6933 47.6504 25.0267 47.2238 24.36C46.6371 24.3867 46.3438 24.8533 46.3438 25.76C46.3438 26.72 46.6238 27.6133 47.1838 28.44C47.7704 29.24 48.5838 29.64 49.6238 29.64ZM52.3438 27.04C52.3971 26.7733 52.4371 26.4933 52.4638 26.2C52.4904 25.9067 52.5038 25.56 52.5038 25.16C52.5038 23.9067 52.3438 22.6667 52.0238 21.44C51.7304 20.1867 51.4771 19.0133 51.2638 17.92C50.6504 18.9333 49.9971 19.9067 49.3038 20.84C48.6371 21.7467 47.9971 22.5067 47.3838 23.12C47.7838 23.9733 48.3971 24.7733 49.2238 25.52C50.0771 26.2667 51.1171 26.7733 52.3438 27.04ZM61.4928 30.2C61.0395 30.2 60.5728 30.08 60.0928 29.84C59.6395 29.6267 59.2661 29.2667 58.9728 28.76C58.6528 28.2533 58.4928 27.6133 58.4928 26.84C58.4928 25.96 58.7061 24.9733 59.1328 23.88C59.5595 22.7867 60.1328 21.7067 60.8528 20.64C61.5728 19.5467 62.3995 18.5467 63.3328 17.64C64.2661 16.7067 65.2395 15.9733 66.2528 15.44C67.2661 14.88 68.2661 14.6 69.2528 14.6C69.8128 14.6 70.2395 14.7067 70.5328 14.92C70.8528 15.1067 71.0128 15.4133 71.0128 15.84C71.0128 15.9467 70.9995 16.04 70.9728 16.12C70.9728 16.2 70.9595 16.2933 70.9328 16.4C70.7995 16.1867 70.5995 16.04 70.3328 15.96C70.0928 15.8533 69.7861 15.8 69.4128 15.8C68.5595 15.8 67.7195 16.0667 66.8928 16.6C66.0928 17.1067 65.3461 17.7867 64.6528 18.64C63.9861 19.4667 63.3995 20.36 62.8928 21.32C62.3861 22.28 61.9861 23.2133 61.6928 24.12C61.4261 25 61.2928 25.7467 61.2928 26.36C61.2928 26.9467 61.4261 27.4133 61.6928 27.76C61.9595 28.1067 62.3061 28.28 62.7328 28.28C63.4528 28.28 64.3195 27.8267 65.3328 26.92C66.3728 26.0133 67.4261 24.7333 68.4928 23.08C69.5595 21.4267 70.5195 19.4933 71.3728 17.28C71.9595 15.7333 72.5595 14.16 73.1728 12.56C73.8128 10.96 74.4528 9.42667 75.0928 7.96C75.7328 6.46667 76.3461 5.14667 76.9328 4C77.5461 2.82667 78.1195 1.90667 78.6528 1.24C79.2128 0.546666 79.7061 0.199999 80.1328 0.199999C80.3461 0.199999 80.5328 0.293332 80.6928 0.479998C80.8528 0.639999 80.9328 0.853333 80.9328 1.12C80.9328 1.54666 80.7061 2.28 80.2528 3.32C79.8261 4.33333 79.2528 5.56 78.5328 7C77.8395 8.41333 77.1061 9.96 76.3328 11.64C75.5595 13.32 74.8128 15.0267 74.0928 16.76C73.3995 18.4933 72.8261 20.1733 72.3728 21.8C71.9461 23.4 71.7328 24.8667 71.7328 26.2C71.7328 26.9467 71.7728 27.5067 71.8528 27.88C71.9328 28.2533 72.1995 28.44 72.6528 28.44C73.2128 28.44 73.8661 28.2 74.6128 27.72C75.3595 27.24 76.1061 26.56 76.8528 25.68C77.5995 24.8 78.2528 23.7467 78.8128 22.52L79.2928 22.88C78.7861 24.24 78.0928 25.4667 77.2128 26.56C76.3328 27.6267 75.3861 28.4667 74.3728 29.08C73.3861 29.72 72.4395 30.04 71.5328 30.04C70.5461 30.04 69.8528 29.7067 69.4528 29.04C69.0795 28.4 68.8928 27.7333 68.8928 27.04C68.8928 26.5867 68.9595 25.9867 69.0928 25.24C69.2261 24.4933 69.4128 23.6667 69.6528 22.76C68.7995 24.1733 67.8928 25.4533 66.9328 26.6C65.9728 27.72 65.0261 28.6 64.0928 29.24C63.1861 29.88 62.3195 30.2 61.4928 30.2ZM79.9591 30.88C79.1324 30.88 78.4391 30.6 77.8791 30.04C77.2924 29.5067 76.9991 28.68 76.9991 27.56C76.9991 26.6 77.2124 25.5733 77.6391 24.48C78.0657 23.36 78.6524 22.2667 79.3991 21.2C80.1457 20.1067 80.9857 19.12 81.9191 18.24C82.8791 17.3333 83.8791 16.6133 84.9191 16.08C85.9857 15.5467 87.0391 15.28 88.0791 15.28C89.1191 15.28 89.9857 15.56 90.6791 16.12C91.3724 16.6533 91.7191 17.3733 91.7191 18.28C91.7191 18.9467 91.5324 19.4 91.1591 19.64C90.8124 19.88 90.3457 20 89.7591 20C89.8124 19.7867 89.8524 19.56 89.8791 19.32C89.9324 19.0533 89.9591 18.8133 89.9591 18.6C89.9591 17.9867 89.8124 17.4667 89.5191 17.04C89.2257 16.5867 88.7191 16.36 87.9991 16.36C87.2524 16.36 86.4924 16.6267 85.7191 17.16C84.9457 17.6667 84.1991 18.36 83.4791 19.24C82.7591 20.0933 82.1191 21.0267 81.5591 22.04C80.9991 23.0533 80.5591 24.0533 80.2391 25.04C79.9191 26.0267 79.7591 26.9067 79.7591 27.68C79.7591 28.72 80.1191 29.24 80.8391 29.24C81.4524 29.24 82.1191 28.96 82.8391 28.4C83.5591 27.8133 84.2924 27.08 85.0391 26.2C85.8124 25.2933 86.5457 24.36 87.2391 23.4C87.9324 22.44 88.5457 21.56 89.0791 20.76C89.1857 20.6 89.2524 20.52 89.2791 20.52C89.4391 20.5467 89.6391 20.6 89.8791 20.68C90.1457 20.76 90.3724 20.8667 90.5591 21C90.7457 21.1333 90.8391 21.3067 90.8391 21.52C90.8391 21.76 90.7191 22.0933 90.4791 22.52C90.2391 22.92 89.9724 23.3867 89.6791 23.92C89.3857 24.4533 89.1191 25 88.8791 25.56C88.6391 26.0933 88.5191 26.6 88.5191 27.08C88.5191 27.48 88.6257 27.88 88.8391 28.28C89.0524 28.6533 89.3991 28.84 89.8791 28.84C90.5991 28.84 91.5457 28.32 92.7191 27.28C93.8924 26.2133 95.0791 24.6267 96.2791 22.52L96.6791 22.92C96.1191 24.36 95.3991 25.6267 94.5191 26.72C93.6391 27.8133 92.6924 28.6667 91.6791 29.28C90.6924 29.8933 89.7191 30.2 88.7591 30.2C87.7724 30.2 87.0391 29.9067 86.5591 29.32C86.1057 28.7333 85.8791 28.0933 85.8791 27.4C85.8791 27.24 85.8924 27.0667 85.9191 26.88C85.9457 26.6667 85.9724 26.4533 85.9991 26.24C84.8524 27.7867 83.7991 28.9467 82.8391 29.72C81.9057 30.4933 80.9457 30.88 79.9591 30.88ZM97.1809 40.2C96.5143 40.2 95.9276 40.0133 95.4209 39.64C94.9143 39.2933 94.6609 38.7733 94.6609 38.08C94.6609 37.2267 94.8743 36.4667 95.3009 35.8C95.7276 35.1333 96.3009 34.52 97.0209 33.96C97.7409 33.4 98.5676 32.8667 99.5009 32.36C100.434 31.8533 101.408 31.3467 102.421 30.84C102.794 29.8533 103.168 28.76 103.541 27.56C103.941 26.3333 104.314 24.9867 104.661 23.52C103.808 24.9067 102.888 26.1067 101.901 27.12C100.941 28.1067 99.9143 28.6 98.8209 28.6C98.3143 28.6 97.8076 28.4933 97.3009 28.28C96.8209 28.04 96.4209 27.68 96.1009 27.2C95.7809 26.72 95.6209 26.1067 95.6209 25.36C95.6209 24.6133 95.7409 23.7467 95.9809 22.76C96.2476 21.7733 96.5676 20.8133 96.9409 19.88C97.3143 18.9467 97.7009 18.1733 98.1009 17.56C98.5009 16.9467 98.8476 16.64 99.1409 16.64C99.2476 16.64 99.4343 16.68 99.7009 16.76C99.9943 16.84 100.261 16.96 100.501 17.12C100.768 17.2533 100.901 17.4 100.901 17.56C100.661 17.9067 100.394 18.4 100.101 19.04C99.8076 19.68 99.5143 20.4 99.2209 21.2C98.9543 21.9733 98.7276 22.7333 98.5409 23.48C98.3543 24.2267 98.2609 24.8667 98.2609 25.4C98.2609 25.88 98.3676 26.2667 98.5809 26.56C98.7943 26.8533 99.1676 27 99.7009 27C100.208 27 100.768 26.76 101.381 26.28C102.021 25.7733 102.648 25.1333 103.261 24.36C103.901 23.5867 104.488 22.76 105.021 21.88C105.101 21.5867 105.168 21.2933 105.221 21C105.301 20.68 105.368 20.36 105.421 20.04C105.501 19.6667 105.688 19.24 105.981 18.76C106.301 18.2533 106.794 18 107.461 18C107.594 18 107.728 18.0133 107.861 18.04C107.994 18.04 108.141 18.0667 108.301 18.12C108.301 18.5467 108.168 19.3467 107.901 20.52C107.661 21.6667 107.301 23.0133 106.821 24.56C106.368 26.1067 105.821 27.6933 105.181 29.32C106.434 28.84 107.661 28.0533 108.861 26.96C110.061 25.84 111.034 24.36 111.781 22.52L112.301 22.92C111.901 24.2 111.288 25.32 110.461 26.28C109.661 27.2133 108.754 28.0267 107.741 28.72C106.728 29.3867 105.728 29.9467 104.741 30.4C104.048 32.1067 103.288 33.7067 102.461 35.2C101.661 36.6933 100.808 37.8933 99.9009 38.8C99.0209 39.7333 98.1143 40.2 97.1809 40.2ZM96.9809 38.92C97.3809 38.92 98.0476 38.3867 98.9809 37.32C99.9409 36.28 100.954 34.44 102.021 31.8C100.928 32.3867 99.9143 32.96 98.9809 33.52C98.0476 34.1067 97.3009 34.7333 96.7409 35.4C96.1809 36.0667 95.9009 36.84 95.9009 37.72C95.9009 37.9333 95.9809 38.1867 96.1409 38.48C96.3009 38.7733 96.5809 38.92 96.9809 38.92Z" fill="url(#paint0_linear_38_60)"/>
<defs>
<linearGradient id="paint0_linear_38_60" x1="67.5" y1="-8" x2="67.5" y2="34" gradientUnits="userSpaceOnUse">
<stop stop-color="#09C7E1"/>
<stop offset="1" stop-color="#1F2227"/>
</linearGradient>
</defs>
</svg>
